<svg 
xmlns="http://www.w3.org/2000/svg" 
version="1.1" 
xmlns:xlink="http://www.w3.org/1999/xlink" 
xmlns:svgjs="http://svgjs.dev/svgjs" 
width="1500" height="1500" viewBox="0 0 1500 1500">
<rect width="1500" height="1500" fill="#fe2205"></rect>
<g transform="matrix(0.6666666666666666,0,0,0.6666666666666666,248.8387313307602,222.9720430107527)">
<svg viewBox="0 0 236 248" 
data-background-color="#fe2205" 
preserveAspectRatio="xMidYMid meet" 
height="1576" width="1500" xmlns="http://www.w3.org/2000/svg" 
xmlns:xlink="http://www.w3.org/1999/xlink">
<g id="tight-bounds" transform="matrix(1,0,0,1,0.27405940594059075,0.4000000000000057)">
<svg viewBox="0 0 235.45188118811882 247.2" height="247.2" width="235.45188118811882">
<g><svg viewBox="0 0 235.45188118811882 247.2" height="247.2" width="235.45188118811882"><g>
<svg viewBox="0 0 235.45188118811882 247.2" height="247.2" width="235.45188118811882">
<g id="textblocktransform">
<svg viewBox="0 0 235.45188118811882 247.2" height="247.2" width="235.45188118811882" id="textblock"><g>
<svg viewBox="0 0 235.45188118811882 247.2" height="247.2" width="235.45188118811882">
<g transform="matrix(1,0,0,1,0,0)">
<svg width="235.45188118811882" viewBox="2.6 -24.85 24.049999999999997 25.25" height="247.2" data-palette-color="#fff9ef">
<path 
d="M12.25 0.1L9.3 0.4 8.85 0.05Q8.4-5.4 7.93-10.05 7.45-14.7 7-19.1L7-19.1Q6.85-20.35 6.53-20.68 6.2-21 5.7-21L5.7-21Q4.8-21 3.3-19.25L3.3-19.25 2.6-20.05Q5.85-24.75 9.1-24.75L9.1-24.75Q12.6-24.75 12.95-20.2L12.95-20.2Q13.3-16.65 13.6-12.58 13.9-8.5 14.2-4L14.2-4Q16.1-6.3 17.75-8.5 19.4-10.7 21.05-13.3L21.05-13.3Q21.8-14.55 21.9-15.68 22-16.8 21.55-18.15L21.55-18.15 20.8-20.1Q20.15-22 21.03-23.43 21.9-24.85 23.6-24.85L23.6-24.85Q25.25-24.85 25.95-23.9 26.65-22.95 26.65-21.5L26.65-21.5Q26.65-20.55 26.2-19.2 25.75-17.85 24.3-15.4L24.3-15.4Q22.3-11.9 19.2-7.83 16.1-3.75 12.25 0.1L12.25 0.1Z" 
opacity="1" transform="matrix(1,0,0,1,0,0)" fill="#fff9ef" class="wordmark-text-0" 
data-fill-palette-color="primary" id="text-0"></path>
</svg></g></svg></g></svg></g></svg></g><g></g></svg></g><defs></defs></svg><rect width="235.45188118811882" height="247.2" fill="none" stroke="none" visibility="hidden"></rect></g></svg></g></svg>